<svg xmlns="http://www.w3.org/2000/svg" width="500" height="500" class="mdl-js" version="1.0" viewBox="0 0 375 375"><path fill="#f8eded" d="M222.758 370.64c-13.078-.152-24.207-.6-35.332-2.257-7.668-1.203-15.188-3.008-22.707-4.961-10.375-2.707-20.899-3.91-31.574-3.309a15.506 15.506 0 0 1-3.758 0c-3.461-.3-4.965-1.953-5.114-5.41-.152-3.008.301-6.015.75-9.023 1.504-8.723 3.762-17.293 6.016-25.864 1.656-6.464 3.309-12.78 4.211-19.394.45-2.559.45-2.559-1.957-3.461-9.922-4.36-20.145-8.27-29.77-13.23-3.457-1.805-6.765-3.91-10.222-5.864-8.121-4.812-11.88-12.027-12.332-21.203-.45-7.969-.903-15.937-1.352-23.754-.601-9.324-1.355-18.644-1.055-28.117.454-20.3 5.266-39.395 16.391-56.54 7.969-12.175 17.594-22.702 29.621-30.972 5.114-3.457 10.524-5.863 16.239-7.969 3.156-1.203 6.015-1.05 9.171 0 3.457 1.204 6.465 3.157 9.172 5.415 5.715 4.66 11.278 9.32 17.293 13.53 1.653 1.204 3.008 1.954 5.113.903 1.954-.902 4.06-.453 6.012-.3 4.813.75 9.774 1.503 14.735.902 4.363-.453 4.511-.754 4.812-4.961.152-1.504 0-3.008.152-4.512.45-2.707 2.707-4.512 5.262-4.059 4.961.75 9.922 1.051 14.735 2.704 7.667 2.707 15.187 5.867 22.105 10.074 5.863 3.46 10.375 8.273 13.98 14.137 4.063 6.914 7.372 14.132 9.774 21.652 3.91 12.18 9.324 23.754 15.941 34.73 2.254 3.91 4.66 7.82 7.067 11.73 3.156 5.263 7.367 9.622 11.425 14.134.454.601.903.754 1.657.754 5.261.148 8.57 3.156 10.375 7.816 1.351 3.309 1.652 6.918 1.953 10.527.148 3.758.45 7.516 1.05 11.125.301 1.805.454 3.758.153 5.563-.453 3.61-.3 7.066 0 10.676.902 11.43-1.805 22.105-6.016 32.628-2.707 6.465-5.113 13.23-7.515 19.848-1.055 2.856-2.258 5.715-3.762 8.27-3.008 4.812-7.367 7.367-13.082 7.668-4.508.3-8.871-.301-13.23-1.805-4.961-1.652-8.118-5.11-9.32-10.074-1.055-4.059-1.657-8.117-2.259-12.18-.75-4.36-1.503-8.57-2.105-12.93-.45-3.156-2.856-3.757-5.262-2.707-1.351.602-2.554 1.356-3.308 2.559-3.61 5.71-7.368 11.125-8.57 18.043-.75 4.207-1.204 8.27-1.653 12.48-.453 5.41-.902 10.825-1.504 16.239-.3 3.757.149 7.515.602 11.277.601 5.863-.903 7.668-6.918 8.418-6.016 1.203-12.028 1.055-16.09 1.055Zm0 0"/><path fill="#004aad" d="M253.734 374.7c-3.91 0-7.668-.15-11.578 0-7.066.3-13.832-1.052-20.597-2.856-2.559-.602-4.965-1.356-7.52-2.106-1.203-.3-1.805-.902-2.254-1.957-1.203-2.406-1.504-4.96-1.656-7.515-.602-12.032 1.805-23.61 5.863-34.883 1.055-2.707 2.106-5.567 3.309-8.121 2.707-5.414 4.058-11.13 4.96-17.14 1.805-11.13 2.56-22.407 2.106-33.68-.148-3.462 0-6.919-.902-10.376-.3-1.054.453-2.105.453-3.16a80.44 80.44 0 0 0-.453-12.027c-.903-7.969-1.203-15.79-1.05-23.758 0-7.066.148-14.133 0-21.2-.153-3.91 0-7.82.6-11.73.301-2.707 0-5.414-.6-7.968-2.106-8.72-4.36-17.442-7.368-26.012-.902-2.555-2.106-5.113-3.309-7.668-1.054-2.258-1.203-4.512-.152-6.766 1.805-3.609 1.504-7.218.152-10.828-.601-1.652-1.355-3.308-1.953-4.96-1.055-2.856-.453-3.759 2.703-3.759 2.106 0 4.211.45 6.317.903 5.261 1.351 10.226 3.605 15.035 6.312 8.57 4.813 16.539 10.375 24.21 16.39 10.075 7.821 17.29 17.595 22.25 29.321 3.16 7.52 6.016 15.035 8.575 22.856 3.305 9.62 8.57 18.043 16.688 24.36 4.812 3.757 4.96 7.515 1.355 12.476-3.91 5.265-9.473 7.37-15.79 7.972-.901.149-1.956.297-2.855.297-1.957.153-3.308 1.203-4.363 2.707-1.203 1.504-2.406 3.008-3.008 4.965-.449 1.652-1.504 3.004-2.254 4.508-1.503 2.558-2.707 5.266-4.511 7.668-4.211 5.715-5.41 12.332-6.012 19.098-1.203 11.277-.902 22.703-.152 33.98.453 7.52.754 15.039 1.203 22.406.3 5.863 1.203 11.578 1.953 17.29.902 6.765 1.355 13.683 1.504 20.6 0 .602 0 1.204-.149 1.806-.3 1.804-.754 2.253-2.558 2.253-6.164.301-12.176.301-18.192.301ZM172.54 219.074c-3.61.153-7.52-.3-11.427-.3-1.504 0-2.86 0-3.91 1.503-1.203 1.657-3.762 1.805-5.562.453-1.055-.753-1.805-1.656-2.707-2.558-2.407-2.254-3.91-2.402-6.766-1.05-.902.448-1.957 1.05-2.86 1.503-4.511 2.555-9.32 3.008-14.285 1.805-5.71-1.203-11.125-3.309-16.687-4.66-1.504-.454-3.008-.754-4.363-1.055-4.961-1.05-9.02.3-12.477 3.758-6.168 6.316-10.527 13.683-11.43 22.707-.449 3.61.454 7.367 1.204 10.824.601 2.86 1.503 5.715 2.257 8.57.75 2.559 1.352 5.113 1.653 7.82.148 1.504.75 2.856 1.804 3.758.903.754.602 1.356-.152 1.957-1.05.75-2.254.903-3.605.903-15.942-.301-27.368-11.578-30.223-23.91-1.656-7.215-.754-14.434.902-21.5 3.457-14.887 8.719-29.172 13.98-43.606 4.966-13.383 10.227-26.465 16.993-38.941 9.02-16.844 22.402-29.774 39.394-38.645 3.157-1.652 6.317-2.707 9.622-3.91 2.707-1.05 5.566-.75 8.421-1.203.602-.149 1.204.453 1.653.601 6.77 3.309 12.933 7.52 19.547 11.13 1.656.902 3.308 2.105 4.664 3.605.601.754 1.652 1.504 1.804 2.258.45 2.105 2.106 3.156 3.606 4.058 4.664 2.559 7.672 6.617 10.226 11.278 5.864 11.43 9.02 23.605 10.977 36.238 1.05 6.312 1.652 12.781 1.953 19.246.3 6.465-.3 13.082-2.105 19.394-.45 1.356-.903 2.708-1.653 3.91-1.351 2.255-3.308 3.758-6.015 3.91-1.653.15-3.157.15-4.809.15h-9.625ZM153.14 370.64a200.996 200.996 0 0 1-18.792-1.355c-4.813-.45-9.774-1.05-14.586-1.652-7.817-1.055-15.489.148-23.004 2.254-.903.3-1.805.601-2.86.601-2.554.153-3.757-.75-4.207-3.308-.754-4.36-.754-8.871-.3-13.38.601-5.265 2.105-10.374 3.609-15.34 1.953-6.464 3.605-13.077 4.809-19.694 1.957-10.829 6.015-20.903 11.43-30.375.75-1.204 1.804-2.403.3-3.758-.3-.301-.152-.75.148-1.051.301-.3.602-.3.903-.152.754.3 1.355.754 2.105 1.203 7.22 4.66 15.035 7.066 23.606 7.82 3.762.3 7.367.902 10.976 1.953 1.957.602 3.762 1.203 4.512 3.309.3.75.902.902 1.652 1.05 2.407.454 4.813.755 7.07 1.204 3.458.601 6.012-.45 7.97-3.457 1.203-1.953 2.105-3.91 2.707-6.016 2.101-6.312 4.058-12.629 6.011-18.793.602-1.957 1.356-3.91 2.406-5.715.602-1.05 1.356-1.804 2.56-2.254.296-.152.75-.152 1.05 0 .3.301.45.602.148.903-3.605 7.066-3.156 14.883-4.207 22.402-1.355 8.871-1.957 17.895-2.406 26.914-.453 8.57-.754 17.14-1.203 25.711-.453 7.969-1.504 15.79-2.86 23.61-.75 4.66-2.855 6.464-7.816 7.066-3.758.45-7.668.75-11.73.3Zm0 0"/><path fill="#fff" d="M199.754 272.754c-1.352.902-2.406 1.805-3.61 2.258-3.457 1.5-6.765.902-9.32-1.805-1.656-1.805-2.707-3.91-3.46-6.316-3.606-11.278-3.759-22.555-.302-33.98 2.106-7.067 4.813-13.837 8.575-20.15 1.199-2.105 2.402-4.363 3.457-6.616.449-1.051.449-1.805-.453-2.708-3.004-3.156-5.262-6.765-7.368-10.523-.449-.902-1.05-1.656-1.503-2.559-2.555-4.808-6.915-6.765-12.18-6.914-3.758-.152-7.516.301-11.125.903-1.953.3-3.91.449-5.863.3-3.008-.152-5.114-1.503-6.317-4.21-.45-1.055-1.05-1.805-2.105-2.258-2.856-1.5-3.758-4.207-2.707-7.215.601-1.656 1.656-3.16 2.859-4.512 4.211-4.66 8.117-9.773 11.879-14.887 4.207-5.71 9.473-10.074 15.336-13.98 8.719-5.715 17.289-5.113 26.012 0 4.812 2.856 8.27 6.766 10.226 12.027 1.8 4.66 3.906 9.172 6.465 13.532 4.207 7.367 10.223 12.48 18.043 15.789 9.32 3.757 18.191 8.422 26.613 13.53 7.067 4.364 12.93 10.075 17.895 16.692 3.004 4.059 5.262 8.57 6.465 13.383a386.244 386.244 0 0 0 5.41 18.793c.601 1.805.902 3.61 1.355 5.414 1.352 7.067 0 13.531-4.36 19.246-2.105 2.707-4.062 5.414-6.316 7.969-5.113 5.715-8.27 12.629-11.128 19.7-.149.3-.301.6-.301 1.05-.45 7.367-3.758 13.383-8.117 19.098-2.106 2.703-4.813 4.808-8.27 5.71-4.66 1.356-8.871.301-12.781-2.253-3.309-2.254-5.863-5.114-7.82-8.723-1.051-1.953-2.407-3.156-4.508-3.758-3.91-1.351-7.22-3.457-9.172-7.367-.153-.453-.602-.902-1.055-1.203-8.57-6.316-15.637-13.984-20.45-23.457Zm0 0"/><path fill="#ffae91" d="M148.934 104.5c3.91-3.91 7.066-8.117 9.921-12.48.301-.602.602-1.051 1.055-1.504 2.707-3.004 3.004-6.313 1.953-10.375-1.652-6.465-.3-12.63 3.309-18.192.75-1.203 1.504-2.406 3.008-3.008.449-.148.902-.902 1.203-1.351 2.406-3.008 4.508-6.168 6.164-9.774.601-1.355 1.203-2.558 1.953-3.761.453-.75.754-1.653 1.957-1.203.75.152 1.352-.45 1.953-.602 6.766-3.004 13.383-6.313 20-9.773 1.5-.75 3.004-1.504 4.66-2.106 2.254-.898 4.512-.601 6.313.902 5.715 5.114 10.375 11.13 13.383 18.043.754 1.657.902 3.61.902 5.567.152 9.32 0 18.793-1.203 28.117-1.05 8.418-4.059 16.387-7.969 24.059-.902 1.652-2.105 2.855-3.309 4.058-.601.602-1.351 1.203-1.953 1.805-1.504 1.504-2.105 3.156-1.203 5.41.903 2.559 1.352 5.414 1.352 8.121v1.656c-.297 4.66-1.2 5.711-5.711 6.313-2.86.3-5.863.453-8.871.601-.903 0-1.805-.148-2.559-.449-2.707-.902-5.262-1.504-8.117-1.504-1.203 0-2.258-.453-3.309-1.054-6.464-3.309-12.18-7.516-17.441-12.328-2.86-2.555-5.563-5.262-8.27-7.97-3.007-2.558-5.714-5.113-9.171-7.218ZM179.156 266.14c-.3-1.656-.152-2.859 0-4.062.45-3.156.602-6.312.45-9.621-.45-7.82.152-15.488 2.558-23.008.45-1.203.899-2.554 1.5-3.758 1.055-2.554 2.707-4.058 5.566-4.96 7.516-2.708 14.883-5.864 22.254-9.172 6.313-2.86 11.426-7.22 15.336-12.934 1.805-2.555 3.309-5.262 5.11-7.816 2.406-3.91 5.113-7.52 8.422-10.829 1.351-1.203 2.554-2.406 4.359-3.156 2.707-1.05 4.664.301 4.512 3.156 0 1.805-.903 3.461-1.653 4.965-.754 1.352-1.656 2.703-2.406 4.207-.601 1.203-.3 1.805.902 2.258 1.352.45 2.707.602 4.211.602h8.871c3.758 0 7.368 1.05 10.825 2.707 2.254 1.05 2.855 2.105 2.554 4.66-.148 1.05-.148 1.805 1.203 2.254 4.364 1.804 5.415 4.812 3.16 8.87-.152.153-.152.302-.152.454.602.75 1.657 1.05 2.559 1.504 4.36 2.555 4.66 6.465.75 9.773.3 1.051 1.351.903 2.105 1.504 1.953 1.504 2.106 3.305.301 4.961-.902.75-1.805 1.504-3.008 1.653-2.254.3-4.36.753-6.617.753-5.863.149-11.726.903-17.59 1.805-3.008.45-5.863 0-8.722-.453-2.856-.45-5.711-1.504-8.57-1.953-1.805-.3-3.458 0-4.962.75-1.953 1.055-3.757 1.957-5.562 3.16-13.234 8.57-26.313 17.14-39.547 25.711-3.156 1.652-5.863 3.457-8.719 6.016Zm0 0"/><path fill="#ffae91" d="M203.813 283.582c-1.801-.453-3.458-.602-4.961-1.055-1.954-.601-3.91-1.504-5.114-3.156-1.953-2.707-.902-4.812 2.407-5.715 3.308-.75 6.617-.148 9.773.153 4.812.601 9.773 1.351 14.586 1.804 3.008.301 6.016.301 9.023-.3.45-.153 1.051-.301 1.203-.903 0-.453-.453-.754-.902-.902-.902-.453-1.656-.903-2.558-1.356-4.813-2.406-9.473-4.96-13.833-8.27-2.105-1.503-4.058-3.308-5.562-5.413-.453-.602-.754-1.203-1.055-1.805-1.203-2.555-.148-4.207 2.707-4.207 4.512-.152 8.723 1.352 12.93 3.156 3.762 1.653 7.219 3.91 10.676 6.164 2.707 1.805 5.265 3.61 8.574 4.211 5.11.903 9.922-.148 14.582-2.406 1.504-.75 1.504-1.203.453-2.406-1.957-2.106-4.062-4.059-6.015-6.012-1.954-1.957-3.91-3.91-5.415-6.316-1.351-1.957-2.253-4.059-2.105-6.465 0-3.461 2.106-4.664 5.113-3.16.453.152.754.453 1.203.754 5.262 3.91 10.528 7.668 15.188 12.328 3.309 3.308 5.863 7.218 7.066 11.73.903 3.457 3.157 6.164 5.563 8.719.601.754 1.355 1.203 2.406.754h.602c4.511-.903 7.52 1.203 10.074 4.66 1.953 2.707 3.758 5.414 4.66 8.719.3 1.203.152 2.105-.902 2.86-4.961 3.91-9.922 7.815-15.785 10.374-4.364 1.805-9.024 2.406-13.536 2.555-12.027.453-24.054 0-36.086-1.953-3.457-.602-6.914-.754-10.375-1.203-3.156-.454-5.863-1.657-7.968-4.06-.45-.452-1.203-1.202-1.051-1.804.601-1.656-.453-1.957-1.504-2.558-1.656-.903-3.16-2.106-4.21-3.61-1.356-1.8-1.356-1.953.148-3.906Zm0 0"/><path fill="#191919" d="M220.203 104.2c-1.203.3-1.203 1.355-1.805 2.105-2.406 3.308-4.511 6.765-7.968 9.324-5.262 3.758-10.825 4.808-16.692 2.254-10.523-4.66-18.945-11.578-24.054-22.254-.454-.902-.754-1.953-1.657-2.707-.601.601-.449 1.203-.449 1.805 0 5.863.149 11.73 1.504 17.593.75 3.457 2.106 6.766 4.36 9.621 1.503 1.957 2.706 4.211 2.855 6.766.152 2.707-.45 5.113-2.856 6.77-.754.449-1.203 1.05-1.652 1.652-2.86 4.36-7.52 5.715-12.332 3.457l-.902-.45c-1.653-.6-2.555-3.007-4.211-2.855-1.653.149-3.305 1.051-5.41 1.2.3 2.105 1.652 3.761 1.804 5.867-.754-1.504-1.504-3.008-2.258-4.512-.449-1.055-1.203-1.504-2.253-1.953-5.415-2.106-8.872-5.867-9.024-12.031 0-1.051-.45-1.352-1.351-1.653-1.957-.754-3.309-1.957-4.512-3.761-.602-.903-1.05-1.653-1.203-2.704-.301-3.609-.301-7.07 1.504-10.375 1.804-3.16 3.457-6.617 5.113-10.074 1.203-2.558 1.652-5.414 1.805-8.273.3-3.457 1.203-6.614 2.406-9.774 1.351-3.304 2.105-6.613 2.105-10.074 0-6.164 1.5-12.027 4.508-17.441 1.504-2.555 2.258-5.41 2.86-8.27 2.253-10.824 7.367-20.297 14.132-28.719 5.414-6.613 12.328-11.125 20.75-13.082 6.618-1.652 12.63-.3 17.743 4.063.601.45.902.75 1.804.45 6.617-2.556 12.63-.603 18.192 3.16 1.804 1.198 3.308 3.003 4.511 4.96.453.75 1.055 1.504 1.504 2.254 3.91 5.262 6.617 10.977 7.219 17.594.45 5.262 1.805 10.222 3.008 15.183 1.953 7.22 2.703 14.586 1.504 21.954-.602 3.46-.301 6.918.3 10.375 1.352 7.968 2.555 16.09 2.856 24.21.148 3.907.3 7.668-.152 11.426-.301 2.406-.301 4.961.3 7.367.602 3.008-.449 5.563-2.855 7.22-2.106 1.503-4.36 1.652-6.465 0-.754-.602-1.355-.755-2.105-.302-4.211 1.954-7.82 1.051-11.125-2.859-.454 4.363-.454 8.422-3.61 11.578-.601-.601 0-1.05.301-1.351 1.953-3.008 2.406-6.465 2.555-9.926.152-2.102 0-2.102-2.106-1.953-1.504.152-2.855 0-4.21-.602-3.759-1.504-5.11-5.715-2.856-9.02 1.804-2.859 3.91-5.413 5.863-8.273 1.055-1.5 2.258-3.004 2.707-4.96.902-.75 1.203-1.653 1.656-3.31-1.203 1.805-1.203 1.805-1.656 3.31Zm-12.629-68.716c-1.504 1.504-2.707 2.707-4.062 3.91-3.907 3.31-8.418 5.415-13.078 7.067-4.364 1.504-8.121 3.91-11.278 7.367-2.707 2.86-4.812 6.164-6.617 9.774-1.203 2.257-1.351 4.812-.902 7.367.902 5.265 2.254 10.375 4.511 15.34 1.204 2.703 2.707 5.41 4.66 7.816 1.505 1.656 1.505 1.656 3.31.3 1.35-1.05 2.855-1.804 4.51-2.105 2.556-.601 5.11-.75 7.669-.449 3.308.3 6.766.149 10.074.45 3.156.3 6.313.6 9.32 2.105.754.453 1.504.453 2.258 0 2.106-1.504 3.91-3.309 4.66-5.864 1.953-6.617 2.407-13.23 1.805-20.148-.152-2.406-.152-2.406-2.406-2.105-2.555.3-5.113.902-7.52 1.804-.75.301-1.652.602-2.105-.3-.45-1.051.453-1.504 1.203-1.954.902-.601 1.957-.754 3.008-.902 1.054-.152 2.105-.152 3.16-.453 1.351-.149 3.156.601 4.059-.45.902-1.054.148-2.706.3-4.21.149-1.953-.453-3.157-2.105-4.36-6.465-4.664-11.727-10.375-14.133-18.343.148-.754-.152-1.055-.3-1.657ZM194.941 95.18c-2.554-.754-4.507 1.351-6.164 3.605-2.406 3.461-1.804 6.317 1.805 8.574 2.856 1.801 6.016 2.704 9.324 3.004 4.059.301 7.969-.3 11.578-2.402 2.403-1.356 3.907-3.461 4.207-6.168.301-2.707-.902-4.059-2.855-4.36-5.563-.902-11.277-1.953-17.895-2.253ZM207.875 316.36c-9.473-.153-18.797-.75-28.27-2.255-3.156-.453-3.757-1.203-3.156-4.363.301-1.805.301-3.91 1.352-4.96 1.054-1.052 3.16-.15 4.812-.15 10.223.75 20.297.302 30.524-.152 2.707-.148 5.562-.449 8.27-.601 1.804-.149 1.804.152 1.652 1.953-.149 3.16-1.2 6.016-2.704 8.875-.601 1.2-1.355 1.8-2.859 1.8-3.309-.3-6.465-.148-9.621-.148ZM272.98 312.902c.75 0 .75.602.903 1.051.902 3.91 1.805 7.82 3.61 11.43 1.35 2.855 2.855 5.41 5.41 7.215 4.062 3.156 8.269 2.855 11.73-.903 3.758-4.058 5.113-9.02 5.562-14.433.453-4.512 0-8.871-1.05-13.23-1.356-6.317-2.86-12.634-4.813-18.946-1.656-5.113-4.36-9.324-9.324-11.73-.602-.301-1.352-.602-1.504-1.352.601-.602 1.203-.152 1.656.148 4.211 1.657 7.067 4.66 8.871 8.723 2.406 5.563 3.758 11.578 5.114 17.441 1.351 5.414 2.554 10.977 2.402 16.692-.149 4.808-1.05 9.472-3.457 13.832a16.467 16.467 0 0 1-3.457 4.36c-3.309 3.007-7.52 3.308-11.43.902-2.555-1.653-4.36-3.91-5.71-6.618-2.259-4.207-3.31-8.87-4.063-13.53-.149-.15-.301-.602-.45-1.052ZM137.656 337.86c-.152-.602.149-1.051.301-1.505 3.309-7.367 6.465-14.734 10.375-21.8.902-1.653 1.805-3.309 3.156-4.66.453-.454.903-.903 1.653-.602.754.3.601 1.05.601 1.652-.3 3.309-1.351 6.317-2.402 9.325-3.61 10.222-8.274 19.996-12.48 29.921-1.805 4.211-3.61 8.57-5.114 12.93-.3.754-.3 1.656-1.203 2.254.152-1.5.602-2.855 1.05-4.059 3.16-9.472 7.52-18.343 11.43-27.363 2.856-6.617 5.715-13.082 7.52-20 .3-1.05.45-2.105.45-3.308-1.352.152-1.653 1.203-2.106 1.957-1.953 3.007-3.61 6.312-5.262 9.62-2.105 4.512-4.21 9.024-6.316 13.532-.602.453-.75 1.504-1.653 2.105ZM201.258 179.23c3.156 3.61 6.765 6.465 10.976 8.872 2.254 1.203 4.512 2.105 6.918 2.855 2.106.602 4.36.754 6.465-.3 1.504-.75 1.653-1.352.903-2.856-.602-1.352-1.504-2.707-2.56-3.758-3.155-3.16-5.108-6.766-6.312-10.977-.902-3.308-2.859-5.863-5.714-7.82-2.707-1.805-5.262-3.61-7.97-5.414-.6-.45-1.355-.75-1.804-1.504.45-.45.903-.148 1.203 0 3.457 1.957 6.766 4.063 9.774 6.469 2.707 2.105 4.66 4.808 5.414 7.969 1.05 4.058 3.008 7.367 5.863 10.375 1.203 1.203 2.406 2.707 3.008 4.359.75 1.953.45 3.008-1.356 4.059-1.652.902-3.457 1.355-5.41.902-7.82-2.106-14.586-6.012-19.398-13.23ZM154.195 364.176c1.504-.453 3.008-1.055 4.512-1.504 3.156-1.055 4.961-3.16 5.41-6.317.453-3.308.903-6.765 1.356-10.074 1.05-9.773 2.707-19.398 4.058-29.172.602-4.058 1.356-8.27 1.656-12.777.602 3.606 0 6.766-.453 9.773-1.05 8.418-2.254 16.84-3.308 25.258a290.895 290.895 0 0 0-1.805 15.942c-.45 4.66-2.855 7.668-7.367 8.718-1.352.153-2.555.754-4.059.153ZM110.742 210.355c-1.805-.453-3.46-.902-5.265-1.203-14.434-3.156-28.418 6.016-32.176 20.297-2.707 9.774-1.805 19.399.75 29.02.453 1.656 1.054 3.16 1.504 4.965-1.051-.602-1.051-1.504-1.352-2.258-3.308-9.621-4.66-19.395-2.406-29.469 2.855-12.332 10.226-20.45 22.703-23.309 5.414-1.203 10.676-.148 15.79 1.356.3.148.452.45.452.601 0 .149 0 0 0 0Zm0 0"/><path fill="#191919" d="M195.844 159.832c-.149 5.867 3.008 9.625 7.52 12.633 3.456 2.254 6.917 4.36 10.523 6.312 2.105 1.203 4.21 2.559 5.566 4.813.45.754 1.504 1.656.602 2.558-.754.903-1.657 0-2.407-.453a216.17 216.17 0 0 1-8.27-4.36c-3.608-2.105-6.769-4.66-8.12-8.722-.301-.902-1.203-1.351-1.805-1.953-3.008-2.86-4.512-6.316-3.61-10.828Zm22.554 24.961c-1.503-2.856-10.523-8.871-15.035-10.375 3.457 6.016 9.774 7.52 15.035 10.375ZM108.785 339.965c0-.45 0-.902.3-1.352 4.813-11.578 9.774-23.156 16.54-33.832 1.957-3.156 4.063-6.015 6.316-8.87.454-.45.754-1.204 1.504-1.204.301.602-.152 1.055-.449 1.504-9.476 12.93-16.39 27.367-23.008 41.95-.449.452-.601 1.355-1.203 1.804ZM174.344 231.855c.3 2.86-.453 5.563-.903 8.422-1.351 9.172-2.707 18.344-4.058 27.516-1.055 6.316-2.406 12.629-4.664 18.644-.149.602-.301 1.204-.903 1.653-.449-.3-.3-.75-.148-1.203 3.309-9.621 4.812-19.696 6.316-29.77 1.203-7.668 2.555-15.336 3.758-22.855.149-.903.301-1.653.602-2.407ZM154.645 209.902c-2.704-18.191-10.075-34.43-19.997-49.617 9.172 9.02 19.547 34.434 19.997 49.617ZM240.805 326.582c-3.16 8.723-3.762 17.895-4.813 26.918-.601-.453-.3-1.055-.3-1.504v-1.656c.601-7.367 1.351-14.735 3.308-21.953.3-.903.602-1.653.902-2.555.149-.45.602-1.05 1.203-.902.602.152.899.601.899 1.203.3 2.406.601 4.812.453 7.219-.453 7.968-1.652 15.785-1.805 23.753 0 2.56.301 4.965.602 7.372-1.05-1.657-1.352-3.61-1.352-5.567-.152-5.41.45-10.676.903-15.937.3-4.211.902-8.27.75-12.48.148-1.352.3-2.708-.75-3.911ZM110.89 268.695c1.055.149 1.356 1.051 1.958 1.653 3.156 3.609 6.312 6.918 10.222 9.773 1.051.754 2.106 1.504 3.157 1.805 1.503.601 2.257.152 2.257-1.504v-2.406c0-.602-.3-1.504.602-1.801.75-.3 1.351.297 1.805.75.902.75 1.804 1.652 2.855 2.406.902.75 1.805 1.504 2.707 2.106 2.254 1.652 4.66 1.804 6.914 0l1.356-.903c-1.055 2.406-3.61 3.61-6.164 3.008-1.657-.453-3.008-1.504-4.364-2.559-1.5-1.203-2.855-2.554-4.507-4.058-.454 1.05-.153 1.953-.153 2.707.153 3.457-1.504 4.512-4.66 2.855-.902-.449-1.652-1.05-2.406-1.504-4.36-3.308-7.969-7.367-11.278-11.726-.148 0-.449-.3-.3-.602ZM251.93 369.887c1.203-1.051 2.406-1.203 3.457-1.653 2.258-1.054 3.91-2.859 4.664-5.261 1.203-3.762 1.203-7.52 1.351-11.43.45-10.824.903-21.5 1.352-32.328 0-.3 0-.45.152-.75.301 6.617.149 13.383-.152 19.996-.149 3.91-.149 7.82-.3 11.73-.15 4.059-.15 8.27-1.2 12.18-1.203 4.66-4.063 6.914-9.324 7.516ZM117.355 224.79c2.407 1.202 3.762 3.155 5.114 5.112 3.758 4.961 6.765 10.375 9.773 15.637.903 1.652 1.805 3.309 3.156 4.961.754-1.504.454-2.707.301-3.91-.3-2.102-.3-4.059-.3-6.164 0-.45 0-1.051.152-1.504.148-.3.449-.602.902-.45.3.15.602.301.75.602.152.45 0 .45-.45.602-.901.3-.6 1.203-.452 1.804.152 2.106.3 4.06.453 6.165.148 1.351.75 3.308-.754 3.91-1.805.75-2.406-1.504-3.156-2.707-1.953-3.309-3.91-6.618-5.715-9.926-2.707-5.11-5.863-9.922-9.774-14.133ZM130.738 169.457c.754.148 1.055.75 1.356 1.203 9.773 11.727 16.687 24.961 20.449 39.844.148.453.3 1.055.3 1.504l-.152.152c-.449 0-.601-.3-.601-.601-4.211-15.188-11.125-28.871-21.05-41.051-.15-.301-.302-.602-.302-1.051Zm0 0"/><path fill="#191919" d="M117.508 224.79c-2.559-.75-3.008-.45-3.008 1.956 0 1.8.602 3.457 1.05 5.262 1.657 5.71 3.462 11.426 5.114 17.14.453 1.352.754 2.555.754 3.91 0 .301 0 .75-.3.903-.454.3-.903 0-1.204-.453-.453-.45-.754-1.051-1.055-1.504-2.554-4.961-5.113-9.922-7.816-15.035-.152-.301-.3-.45.148-.903 2.856 5.262 5.715 10.676 8.723 16.239.602-1.051.3-1.504.148-2.106-1.503-6.465-3.757-12.629-5.562-18.945-.453-1.652-.754-3.457-.902-5.262 0-.902-.45-1.953.601-2.406 1.352-.3 2.406 0 3.309 1.203ZM186.371 321.02c-1.953 14.285-3.906 28.57-5.863 42.855-.903-3.46 2.554-29.32 5.863-42.855ZM191.184 362.219c-.602-3.457 3.007-37.438 4.511-41.2-.152 6.317-3.61 39.247-4.511 41.2ZM236.895 144.797c4.808 7.066 7.515 14.887 9.171 23.156-.152-4.512-.754-8.871-1.054-13.23 1.054 4.359 2.105 8.87 1.957 13.379 0 .453 0 .902-.153 1.355 0 .148-.3.45-.601.45-.149 0-.602-.15-.602-.302-.3-.601-.601-1.203-.601-1.804-1.352-7.969-4.059-15.336-7.969-22.25 0-.301 0-.453-.148-.754ZM120.816 348.387c4.961-10.528 10.977-20.45 17.442-30.825-.301 2.407-11.278 21.653-17.442 30.825ZM221.86 327.637c-.301 2.707-1.356 5.113-2.106 7.668-1.504 6.316-2.559 12.78-1.805 19.398.149 1.5.903 3.156.45 5.11-1.352-2.856-1.653-5.563-1.653-8.27-.3-6.766 1.203-13.23 3.309-19.695.449-1.356.449-3.008 1.804-4.211ZM282 245.238c-.45.153-.602.153-.602.153-4.058-2.86-8.418-2.707-12.93-1.203-2.105.75-4.359 1.05-6.616.902-.45 0-.899 0-1.653-.754 1.805.3 3.008 0 4.36-.149 1.054-.152 1.957-.601 2.859-1.355 2.105-2.105 4.809-3.309 7.516-4.36-1.352 1.505-3.457 2.255-5.41 4.212 4.808-1.204 9.019-1.204 12.476 2.554ZM302 267.191c1.504 3.008 3.156 5.864 4.66 8.723.754 1.352 1.504 2.703 2.258 3.906.45.602.902 1.657 1.805 1.356.898-.301.597-1.356.597-2.106 0-1.656-.597-3.308-1.05-4.96-.75-2.708-1.504-5.266-2.254-7.97-.301-.902-.454-1.956-.153-2.859 1.356 5.262 3.61 10.227 4.512 15.79 0 .3.148.75 0 1.05-.3.754-.152 1.957-1.203 2.258-1.05.3-1.652-.453-2.254-1.055-.602-.902-1.356-1.953-1.805-2.855-1.656-3.008-3.16-6.164-4.664-9.324-.449-.75-.902-1.204-.449-1.954ZM171.637 196.371c2.105 3.156 2.406 7.066 4.36 10.375.901-6.617-.302-13.082-.903-20.148 1.203 1.953 1.203 3.609 1.355 5.261.75 4.512 1.051 9.172.903 13.836 0 1.051.3 2.703-1.204 2.856-1.203.148-1.503-1.356-1.656-2.406-1.05-3.157-1.953-6.465-2.855-9.774ZM88.938 250.953c1.355.149 1.203 1.352 1.503 2.106 1.957 6.011 4.813 11.425 8.723 16.386 2.106 2.559 4.36 4.813 6.914 7.368-1.203.152-1.652-.602-2.105-1.051-6.914-6.164-11.426-13.684-14.133-22.555-.149-.75-.149-1.652-.903-2.254ZM179.906 163.895c-1.804-.153-3.457-.301-4.812-1.204-.602-.3-1.051-.754-.903-1.504.153-.601.602-.753 1.055-1.054 1.504-.602 5.863.152 7.066 1.355.75.75.602 1.653-.449 2.106-.754.3-1.504.3-1.957.3ZM169.23 213.363c-2.707-6.765-3.91-13.836-6.164-20.75 3.309 6.465 5.262 13.532 6.164 20.75ZM123.223 115.176c-8.575 4.96-15.489 11.73-21.805 19.699 2.406-5.867 15.488-18.344 21.805-19.7ZM295.383 312.45c-1.051 2.859-1.504 3.16-3.61 2.257-1.199-.453-1.652-.152-1.8 1.05-.301 1.954-.602 3.911-.903 5.716-.152.902-.152 2.105-1.355 2.406-1.352.3-1.805-.902-2.254-1.805-1.805-3.46-2.86-7.066-3.762-10.828 1.957 3.91 2.707 8.27 5.567 12.031 1.504-1.656 1.203-3.46 1.652-4.964.3-1.051.152-2.254.602-3.458.3-1.05 1.054-1.652 1.953-1.203 1.656 1.203 2.859.301 3.91-1.203ZM247.57 145.398c.602 0 .75.454.903.903 4.207 7.668 6.464 15.937 6.312 24.808 0 .301-.148.453-.148.754 0 0-.153 0-.453.149-.149-2.254-.301-4.36-.45-6.614a54.407 54.407 0 0 0-5.414-18.043c-.449-.601-.902-1.203-.75-1.957ZM122.469 296.059c-3.156 7.37-6.317 14.586-10.223 21.503 2.856-7.367 6.313-14.433 10.223-21.503ZM101.117 333.8c-1.805 8.872-3.156 17.743-3.308 26.766-1.051-9.171.601-18.043 3.308-26.765ZM302.902 296.36c1.805 7.972 4.813 15.94 2.254 24.359 1.504-8.27-.902-16.239-2.254-24.36ZM232.984 169.906c-2.554-7.367-5.113-14.883-8.57-21.949 4.211 6.766 6.918 14.133 8.57 21.95ZM263.656 187.648c2.707-7.214 3.61-14.734 3.309-22.402 1.656 6.766-.149 19.399-3.309 22.402ZM206.52 283.883c8.27-.602 15.937.75 23.609-.153-5.266 1.356-9.926.903-23.61.153ZM201.86 340.117c.449-5.863.902-11.73 1.202-17.742.75 6.012.149 11.879-.753 17.742h-.45ZM300.348 247.645c5.562 2.253 9.62 6.164 12.629 11.125-1.204-.602-1.957-1.805-2.856-2.704-1.055-1.054-2.105-2.257-3.16-3.308-1.05-1.055-2.106-1.957-3.309-2.707-1.05-.903-2.254-1.656-3.304-2.406ZM231.332 291.098c-.3.453-.602.453-1.055.601-5.714.301-11.578.602-17.293.453-.3 0-.75 0-.898-.601 6.312-.301 12.777-.301 19.246-.453ZM77.21 182.54c-.753 3.608-2.257 7.065-3.456 10.675-.902 2.707-1.805 5.262-2.707 8.117-.453-.45-.3-.902-.152-1.203 1.804-5.41 3.609-10.824 5.414-16.086.148-.602 0-1.504.902-1.504ZM194.191 298.766c.75-5.11-.152-10.223 0-15.485 1.204 5.262 1.352 10.375 0 15.485ZM235.238 260.273c1.504-4.507 3.61-8.718 8.27-10.824-1.352 1.805-3.156 3.156-4.508 4.961-1.355 1.957-2.406 4.059-3.762 5.863ZM306.059 243.434c1.355.754 2.859 1.355 4.664 2.257-.754-1.957-2.407-2.859-2.407-4.812 1.504 1.805 3.004 3.758 4.508 5.562.301.301.301.602 0 .903-.3.449-.601.148-.902 0-2.102-1.203-4.059-2.406-6.164-3.61 0 0 .152-.148.3-.3ZM272.98 174.719c1.204 7.668.75 13.531-1.203 17.293 1.203-5.715 1.203-11.578 1.203-17.293ZM149.234 178.176c4.207.902 7.817-1.051 12.028-1.801-3.008 2.855-8.57 3.605-12.028 1.8ZM199.152 257.117c2.258 4.36 1.805 8.422-.601 12.48-.149-2.257 1.054-4.058 1.203-6.163.3-2.106-.149-4.211-.602-6.317ZM187.125 299.367c-.3-3.758-.754-7.515-1.055-11.277 1.504 3.61 2.106 7.37 1.657 11.277h-.602ZM206.82 210.957c-4.21 0-6.765-2.86-9.472-5.562 3.16 1.953 6.015 4.058 9.472 5.562ZM110.89 200.582c1.055 0 1.805-.152 1.657-1.504-.152-.902-.3-1.805-.453-2.555-.602-2.707-1.653-5.414-2.555-8.12-.3-.903-.902-1.805-.754-2.856.754.3.754 1.05 1.055 1.652 1.05 3.156 2.406 6.317 3.156 9.625.3 1.051.45 2.102.152 3.156-.601 1.352-1.355 1.653-2.257.602ZM218.852 242.832c0 1.656.148 3.16.148 4.813 0 1.652.754 3.007 1.504 4.511-1.805-.902-2.106-1.656-2.406-4.062-.149-1.953 0-3.606.754-5.262ZM294.781 229.45c4.664-1.204 7.969-3.606 10.227-7.368-.903 4.063-5.262 7.219-10.227 7.367ZM104.273 158.18c-.898 2.707-.449 5.562-.3 8.422.152 2.101.902 4.359 1.203 6.464-.301 0-.602-.152-.75-.601-1.203-4.363-1.352-8.871-1.051-13.535.148-.602.598-.602.898-.75ZM125.324 210.203c-.449.902-1.504.902-2.254 1.055-4.21 1.05-8.27.3-12.328-.903.75-.453 1.504-.3 2.406 0 3.907 1.051 7.668 1.051 11.575-.152h.601ZM150.137 171.11c.3 0 .75.152 1.203.152.3 0 .601.3.75.75 0 .3-.149.601-.45.902-.6.453-1.355.602-1.956.602-.75 0-1.805.3-1.954-.75-.152-.903.903-1.203 1.653-1.356 0-.3.3-.3.754-.3ZM276.738 222.082H265.16a37.366 37.366 0 0 1 11.578 0ZM297.188 273.957c2.105 1.805 3.007 4.211 3.16 6.918-.903-2.406-1.957-4.66-3.16-6.918Zm0 0"/><path fill="#191919" d="M108.785 185.695c-1.351-1.953-1.805-4.21-2.105-6.465 1.203 1.954 1.804 4.211 2.105 6.465-.148 0 0 0 0 0ZM262.305 200.883h6.465v.148h-6.465v-.148ZM276.29 190.508v5.562c-.454-1.953-.454-3.007 0-5.562ZM106.531 179.23c-.754-1.953-1.957-3.91-1.203-6.316.149 2.258 1.352 4.211 1.203 6.316ZM274.934 211.559c-1.805.3-3.61.148-5.41-.153 1.8-.3 3.757 0 5.41.153ZM130.59 169.605c-1.504-1.05-2.406-2.554-3.461-4.058 1.504 1.055 3.008 2.254 3.46 4.058.15-.148 0 0 0 0ZM208.625 324.328c.3 1.805.453 3.61 0 6.016-.3-2.406 0-4.211 0-6.016ZM302 289.895c0 1.355 1.05 2.707.602 4.062-.301-1.203-.903-2.559-.602-4.062ZM137.656 337.71c-.152 1.653-1.054 3.009-1.957 4.36.453-1.504.754-3.007 1.957-4.36 0 .15 0 0 0 0ZM199.906 296.512c.149-1.203.45-2.407.75-3.758.453 1.953.453 1.953-.75 3.758ZM110.89 200.582c-1.503-.3-2.105-1.504-2.855-2.86 1.05.903 1.953 1.958 2.856 2.86ZM125.324 210.203c1.055-1.203 2.559-1.351 3.91-1.953-1.203.902-2.254 2.105-3.91 1.953ZM110.89 268.695c-1.35-.754-1.804-2.105-2.406-3.308.903 1.05 2.106 1.804 2.407 3.308ZM77.21 182.54c-.452-1.505.75-2.56 1.204-3.911-.152 1.351-.453 2.707-1.203 3.91ZM221.86 327.785c-.153-1.652.449-3.004 1.652-4.207-.453 1.352-.602 2.856-1.653 4.207 0-.148 0 0 0 0ZM104.426 158.18c-.903-1.504-.301-2.707.601-4.66-.152 1.953-.902 3.308-.601 4.66-.153 0 0 0 0 0ZM272.98 312.902c-.3-1.355 0-2.859-.453-4.21 1.055 1.351.903 2.855.453 4.21ZM235.54 356.055c.452.902.151 1.504 0 2.254-.302-.75-.302-1.504 0-2.254ZM247.57 145.398c-.902-.449-1.054-1.351-1.504-2.253 1.051.449 1.504 1.203 1.504 2.253ZM223.512 323.578c-.301-.902.148-1.504.902-2.558-.152 1.203-.453 1.804-.902 2.558 0-.152 0 0 0 0ZM89.238 247.344c-.75-.453-1.05-1.051-.601-1.953.3.75-.149 1.5.601 1.953ZM79.918 175.172c-.152-1.055.3-1.356.602-1.805.3.75-.301 1.051-.602 1.805ZM108.637 339.816c.148.903-.153 1.504-.903 2.254.149-.902.45-1.504.903-2.254.148.149 0 0 0 0ZM231.332 291.098c.75-.602 1.352-.45 2.555-.301-1.055.601-1.805.601-2.555.3ZM89.09 250.953c.3-1.203-.453-2.406.3-3.46-.152 1.054.45 2.257-.3 3.46-.153 0 0 0 0 0ZM181.71 67.512c.302-1.051 1.052-.903 1.806-1.203a31.266 31.266 0 0 1 12.93-.903c.452 0 .902.153 1.202.453.454.301.903.602.754 1.204-.152.601-.601.902-1.054.902-.45 0-1.051.148-1.653 0-3.61-.754-7.218-.453-10.828-.3-1.05.3-2.105.448-3.156-.153ZM201.71 90.367c.15-.453.599-.601 1.052-.601.75-.153 1.351-.153 2.105-.301 3.61-.602 3.91-1.203 3.61-4.66-.301-3.309-.754-6.618-1.055-10.075.902.149.902.903 1.055 1.504.75 3.305 1.203 6.766 1.503 10.223.149 1.805-.601 3.008-2.257 3.758-2.254 1.203-4.211 1.203-6.012.152ZM185.168 73.977c.754-.301 1.203.3 1.656.601 2.707 1.504 5.414 1.504 8.117.3.454-.148.903-.448 1.504-.6.602-.15.754.3.602.753-.149.301-.3.45-.45.602-2.859 3.008-9.324 2.105-11.429-1.656ZM222.457 72.023c-2.254 4.059-6.164 4.813-9.172 1.805 1.656 0 3.16.75 4.664.602 1.653-.453 2.555-1.957 4.508-2.407ZM209.828 98.785c-4.96 2.707-9.773 3.008-14.887.153 5.114 1.652 9.926 1.05 14.887-.153Zm0 0"/></svg>